<?xml version="1.0" encoding="UTF-8"?>
<svg id="Layer_1" data-name="Layer 1" xmlns="http://www.w3.org/2000/svg" viewBox="0 0 433.23 109.65">
  <defs>
    <style>
      .cls-1, .cls-2 {
        fill: #fdf4dc;
      }

      .cls-2 {
        font-family: BrushScriptMT, 'Brush Script MT';
        font-size: 95.07px;
        letter-spacing: .12em;
      }
    </style>
  </defs>
  <g>
    <g>
      <path class="cls-1" d="M107.74,21.52h8.15c2.12,0,3.94,.2,5.45,.59,1.52,.39,2.89,1.13,4.13,2.21,3.21,2.75,4.82,6.94,4.82,12.55,0,1.85-.16,3.55-.48,5.08-.32,1.53-.82,2.91-1.5,4.14s-1.54,2.33-2.59,3.3c-.83,.74-1.73,1.34-2.72,1.79-.98,.45-2.04,.77-3.17,.95-1.13,.18-2.4,.27-3.82,.27h-8.15c-1.14,0-1.99-.17-2.57-.52-.58-.34-.95-.83-1.13-1.45-.18-.62-.26-1.44-.26-2.43V25.35c0-1.35,.3-2.32,.91-2.93,.6-.6,1.58-.91,2.93-.91Zm2.42,4.95v20.95h4.74c1.04,0,1.85-.03,2.44-.08s1.2-.2,1.83-.42c.63-.22,1.18-.54,1.64-.95,2.09-1.77,3.14-4.81,3.14-9.14,0-3.05-.46-5.33-1.38-6.84s-2.05-2.48-3.4-2.9-2.98-.62-4.89-.62h-4.13Z"/>
      <path class="cls-1" d="M138.29,26.87c-.8,0-1.49-.25-2.05-.74-.57-.49-.85-1.19-.85-2.08,0-.81,.29-1.48,.87-2.01,.58-.53,1.26-.79,2.03-.79s1.4,.24,1.98,.72c.58,.48,.86,1.17,.86,2.08s-.28,1.58-.84,2.07-1.23,.75-2,.75Zm2.84,5.94v16.62c0,1.15-.27,2.02-.82,2.61-.55,.59-1.24,.88-2.08,.88s-1.53-.3-2.05-.91-.79-1.47-.79-2.59v-16.45c0-1.14,.26-1.99,.79-2.57s1.21-.86,2.05-.86,1.54,.29,2.08,.86c.55,.58,.82,1.38,.82,2.4Z"/>
      <path class="cls-1" d="M168.22,33.75v16.7c0,1.91-.2,3.55-.61,4.93s-1.06,2.51-1.96,3.41c-.9,.9-2.07,1.57-3.53,2-1.45,.44-3.26,.65-5.42,.65-1.98,0-3.75-.28-5.31-.83-1.56-.55-2.76-1.27-3.6-2.15-.84-.88-1.26-1.78-1.26-2.71,0-.7,.24-1.27,.72-1.72s1.05-.66,1.73-.66c.84,0,1.58,.37,2.21,1.12,.31,.38,.63,.76,.96,1.15,.33,.39,.7,.72,1.09,.99,.4,.27,.88,.48,1.44,.61,.56,.13,1.21,.2,1.94,.2,1.49,0,2.64-.21,3.46-.62s1.4-.99,1.73-1.74,.52-1.54,.58-2.39c.06-.85,.1-2.21,.13-4.1-.88,1.24-1.91,2.18-3.06,2.82s-2.54,.97-4.14,.97c-1.92,0-3.6-.49-5.04-1.47-1.44-.98-2.54-2.36-3.32-4.13-.77-1.77-1.16-3.81-1.16-6.13,0-1.73,.24-3.29,.71-4.68,.47-1.39,1.14-2.56,2.01-3.52,.87-.95,1.87-1.67,3.01-2.16,1.14-.48,2.39-.73,3.75-.73,1.63,0,3.04,.31,4.23,.94,1.19,.62,2.3,1.6,3.33,2.94v-.78c0-1,.25-1.77,.74-2.32,.49-.55,1.12-.82,1.9-.82,1.11,0,1.85,.36,2.21,1.08,.37,.72,.55,1.77,.55,3.13Zm-16.66,7.29c0,2.33,.51,4.09,1.53,5.29,1.02,1.19,2.33,1.79,3.95,1.79,.95,0,1.86-.26,2.71-.77,.85-.51,1.54-1.28,2.07-2.32,.53-1.03,.8-2.28,.8-3.76,0-2.34-.52-4.17-1.55-5.48-1.03-1.31-2.39-1.96-4.07-1.96s-2.96,.62-3.95,1.87c-.99,1.25-1.48,3.03-1.48,5.33Z"/>
      <path class="cls-1" d="M176.94,26.87c-.8,0-1.49-.25-2.05-.74-.57-.49-.85-1.19-.85-2.08,0-.81,.29-1.48,.87-2.01,.58-.53,1.26-.79,2.03-.79s1.4,.24,1.98,.72c.58,.48,.86,1.17,.86,2.08s-.28,1.58-.84,2.07-1.23,.75-2,.75Zm2.84,5.94v16.62c0,1.15-.27,2.02-.82,2.61-.55,.59-1.24,.88-2.08,.88s-1.53-.3-2.05-.91-.79-1.47-.79-2.59v-16.45c0-1.14,.26-1.99,.79-2.57s1.21-.86,2.05-.86,1.54,.29,2.08,.86c.55,.58,.82,1.38,.82,2.4Z"/>
      <path class="cls-1" d="M186.04,30.05h.63v-3.45c0-.93,.02-1.65,.07-2.18,.05-.53,.19-.98,.41-1.36,.22-.39,.55-.71,.97-.96s.89-.37,1.41-.37c.73,0,1.39,.27,1.98,.82,.39,.37,.64,.81,.75,1.34,.1,.53,.16,1.27,.16,2.24v3.92h2.11c.81,0,1.44,.19,1.86,.58,.43,.39,.64,.88,.64,1.48,0,.77-.31,1.31-.92,1.62-.61,.31-1.48,.46-2.62,.46h-1.07v10.57c0,.9,.03,1.59,.09,2.07,.06,.48,.23,.88,.51,1.18s.72,.45,1.34,.45c.34,0,.79-.06,1.37-.18,.58-.12,1.02-.18,1.35-.18,.46,0,.88,.19,1.25,.56s.56,.83,.56,1.38c0,.93-.51,1.64-1.52,2.13s-2.46,.74-4.36,.74c-1.8,0-3.16-.3-4.09-.91-.93-.6-1.53-1.44-1.82-2.51s-.43-2.49-.43-4.27v-11.04h-.76c-.83,0-1.46-.2-1.9-.59-.44-.39-.65-.89-.65-1.5s.23-1.1,.68-1.48c.46-.39,1.12-.58,1.99-.58Z"/>
      <path class="cls-1" d="M215.52,49.68c-1.39,1.08-2.73,1.89-4.03,2.43-1.3,.54-2.76,.81-4.37,.81-1.47,0-2.77-.29-3.89-.87-1.12-.58-1.98-1.37-2.58-2.37-.6-1-.91-2.08-.91-3.24,0-1.57,.5-2.91,1.5-4.02,1-1.11,2.37-1.85,4.11-2.23,.36-.08,1.27-.27,2.72-.57,1.45-.29,2.69-.56,3.72-.81,1.03-.25,2.15-.54,3.36-.9-.07-1.52-.38-2.63-.92-3.34s-1.66-1.06-3.36-1.06c-1.46,0-2.56,.2-3.3,.61-.74,.41-1.37,1.02-1.9,1.83s-.9,1.35-1.12,1.61c-.22,.26-.68,.39-1.4,.39-.65,0-1.2-.21-1.67-.62-.47-.41-.71-.94-.71-1.59,0-1.01,.36-1.99,1.07-2.95,.72-.95,1.83-1.74,3.35-2.36,1.52-.62,3.4-.93,5.67-.93,2.53,0,4.51,.3,5.96,.9,1.45,.6,2.47,1.54,3.06,2.83,.6,1.29,.9,3,.9,5.14,0,1.35,0,2.49-.01,3.43,0,.94-.02,1.99-.03,3.14,0,1.08,.18,2.21,.54,3.38,.36,1.17,.54,1.93,.54,2.26,0,.59-.28,1.13-.83,1.61s-1.18,.73-1.88,.73c-.59,0-1.17-.28-1.75-.83-.58-.55-1.19-1.36-1.83-2.41Zm-.38-8.32c-.84,.31-2.07,.64-3.67,.98-1.61,.34-2.72,.6-3.34,.76-.62,.16-1.21,.48-1.77,.95-.56,.47-.84,1.13-.84,1.97s.33,1.61,.99,2.22c.66,.61,1.52,.92,2.59,.92,1.14,0,2.19-.25,3.15-.75,.96-.5,1.67-1.14,2.12-1.93,.52-.87,.78-2.3,.78-4.3v-.82Z"/>
      <path class="cls-1" d="M226.62,49.42V24.49c0-1.15,.26-2.02,.77-2.61,.51-.59,1.2-.88,2.07-.88s1.57,.29,2.11,.87c.53,.58,.8,1.46,.8,2.62v24.93c0,1.17-.27,2.04-.81,2.62-.54,.58-1.24,.87-2.1,.87s-1.53-.3-2.05-.91-.79-1.47-.79-2.59Z"/>
    </g>
    <g>
      <path class="cls-1" d="M253.74,21.52h8.15c2.12,0,3.94,.2,5.45,.59,1.52,.39,2.89,1.13,4.13,2.21,3.21,2.75,4.82,6.94,4.82,12.55,0,1.85-.16,3.54-.48,5.08-.32,1.53-.82,2.91-1.5,4.14-.67,1.23-1.54,2.33-2.59,3.3-.83,.74-1.73,1.34-2.72,1.79-.98,.45-2.04,.77-3.17,.95-1.13,.18-2.4,.27-3.82,.27h-8.15c-1.14,0-1.99-.17-2.57-.52-.58-.34-.95-.83-1.13-1.45-.18-.62-.26-1.44-.26-2.43V25.35c0-1.35,.3-2.32,.91-2.93,.6-.6,1.58-.91,2.93-.91Zm2.42,4.95v20.95h4.74c1.04,0,1.85-.03,2.44-.08,.59-.06,1.2-.2,1.83-.42,.63-.22,1.18-.54,1.64-.95,2.09-1.77,3.14-4.82,3.14-9.14,0-3.05-.46-5.33-1.38-6.84s-2.05-2.48-3.4-2.9-2.98-.62-4.89-.62h-4.13Z"/>
      <path class="cls-1" d="M284.29,26.87c-.8,0-1.49-.25-2.05-.74s-.85-1.19-.85-2.08c0-.81,.29-1.49,.87-2.01,.58-.53,1.26-.79,2.03-.79s1.4,.24,1.98,.72c.58,.48,.86,1.17,.86,2.08s-.28,1.58-.84,2.07-1.23,.75-2,.75Zm2.84,5.94v16.62c0,1.15-.27,2.02-.82,2.61-.55,.59-1.24,.88-2.08,.88s-1.53-.3-2.05-.91-.79-1.47-.79-2.59v-16.45c0-1.14,.26-1.99,.79-2.57,.53-.58,1.21-.86,2.05-.86s1.54,.29,2.08,.86c.55,.58,.82,1.38,.82,2.4Z"/>
      <path class="cls-1" d="M307.61,49.68c-1.39,1.08-2.73,1.89-4.03,2.43-1.3,.54-2.76,.81-4.37,.81-1.47,0-2.77-.29-3.89-.87-1.12-.58-1.98-1.37-2.58-2.37-.6-1-.91-2.08-.91-3.24,0-1.57,.5-2.91,1.5-4.02,1-1.11,2.37-1.85,4.11-2.23,.36-.08,1.27-.27,2.72-.57,1.45-.29,2.69-.56,3.72-.81,1.03-.25,2.15-.54,3.36-.9-.07-1.52-.38-2.63-.92-3.34-.54-.71-1.66-1.06-3.36-1.06-1.46,0-2.56,.2-3.3,.61-.74,.41-1.37,1.02-1.9,1.83s-.9,1.35-1.12,1.61-.68,.39-1.4,.39c-.65,0-1.2-.21-1.67-.62-.47-.41-.71-.94-.71-1.59,0-1.01,.36-1.99,1.07-2.95,.72-.95,1.83-1.74,3.35-2.36,1.52-.62,3.4-.93,5.67-.93,2.53,0,4.51,.3,5.96,.9s2.47,1.54,3.06,2.83,.9,3,.9,5.14c0,1.35,0,2.49-.01,3.43,0,.94-.02,1.99-.03,3.14,0,1.08,.18,2.21,.54,3.38,.36,1.17,.54,1.93,.54,2.26,0,.59-.28,1.13-.83,1.61s-1.18,.73-1.88,.73c-.59,0-1.17-.28-1.75-.83-.58-.55-1.19-1.36-1.83-2.41Zm-.38-8.32c-.84,.31-2.07,.64-3.67,.98s-2.72,.6-3.34,.76c-.62,.16-1.21,.48-1.77,.95-.56,.47-.84,1.13-.84,1.97s.33,1.61,.99,2.22c.66,.61,1.52,.92,2.59,.92,1.14,0,2.19-.25,3.15-.75,.96-.5,1.67-1.14,2.12-1.93,.52-.87,.78-2.3,.78-4.3v-.82Z"/>
      <path class="cls-1" d="M318.71,49.42V24.49c0-1.15,.26-2.02,.77-2.61,.51-.59,1.2-.88,2.07-.88s1.57,.29,2.11,.87c.53,.58,.8,1.46,.8,2.62v24.93c0,1.17-.27,2.04-.81,2.62-.54,.58-1.24,.87-2.1,.87s-1.53-.3-2.05-.91-.79-1.47-.79-2.59Z"/>
      <path class="cls-1" d="M351.92,41.23c0,1.71-.27,3.29-.8,4.74-.53,1.45-1.31,2.69-2.32,3.73s-2.22,1.84-3.62,2.39c-1.4,.55-2.98,.83-4.74,.83s-3.31-.28-4.7-.84c-1.39-.56-2.59-1.37-3.61-2.41-1.02-1.04-1.79-2.28-2.32-3.71-.53-1.42-.79-3-.79-4.73s.27-3.33,.8-4.78c.53-1.45,1.3-2.68,2.3-3.71,1-1.02,2.2-1.81,3.62-2.37s2.98-.83,4.7-.83,3.32,.28,4.74,.84,2.63,1.36,3.64,2.4,1.78,2.27,2.31,3.71c.53,1.43,.79,3.01,.79,4.74Zm-5.77,0c0-2.34-.52-4.17-1.55-5.48s-2.42-1.96-4.16-1.96c-1.12,0-2.11,.29-2.97,.87-.86,.58-1.52,1.44-1.98,2.58-.46,1.14-.69,2.46-.69,3.98s.23,2.81,.68,3.94c.46,1.12,1.11,1.98,1.96,2.58s1.85,.89,3,.89c1.74,0,3.13-.66,4.16-1.97,1.03-1.31,1.55-3.13,1.55-5.44Z"/>
      <path class="cls-1" d="M377.59,33.75v16.7c0,1.91-.2,3.55-.61,4.93s-1.06,2.51-1.96,3.41c-.9,.9-2.07,1.57-3.53,2-1.45,.44-3.26,.65-5.42,.65-1.98,0-3.75-.28-5.31-.83-1.56-.55-2.76-1.27-3.6-2.15-.84-.88-1.26-1.78-1.26-2.71,0-.7,.24-1.27,.72-1.72s1.05-.66,1.73-.66c.84,0,1.58,.37,2.21,1.12,.31,.38,.63,.76,.96,1.15,.33,.39,.7,.72,1.09,.99,.4,.27,.88,.48,1.44,.61,.56,.13,1.21,.2,1.94,.2,1.49,0,2.64-.21,3.46-.62s1.4-.99,1.73-1.74,.52-1.54,.58-2.39c.06-.85,.1-2.21,.13-4.1-.88,1.24-1.91,2.18-3.06,2.82s-2.54,.97-4.14,.97c-1.92,0-3.6-.49-5.04-1.47-1.44-.98-2.54-2.36-3.32-4.13-.77-1.77-1.16-3.81-1.16-6.13,0-1.73,.24-3.29,.71-4.67,.47-1.39,1.14-2.56,2.01-3.52,.87-.96,1.87-1.67,3.01-2.16,1.14-.48,2.39-.73,3.75-.73,1.63,0,3.04,.31,4.23,.94s2.3,1.6,3.33,2.94v-.78c0-1,.25-1.77,.74-2.32s1.12-.82,1.9-.82c1.11,0,1.85,.36,2.21,1.08,.37,.72,.55,1.77,.55,3.13Zm-16.66,7.29c0,2.33,.51,4.09,1.53,5.29,1.02,1.19,2.33,1.79,3.95,1.79,.95,0,1.86-.26,2.71-.77,.85-.51,1.54-1.28,2.07-2.32,.53-1.03,.8-2.29,.8-3.76,0-2.34-.52-4.17-1.55-5.48-1.03-1.31-2.39-1.96-4.07-1.96s-2.96,.62-3.95,1.88c-.99,1.25-1.48,3.03-1.48,5.33Z"/>
      <path class="cls-1" d="M398.33,49.68v-.74c-.69,.87-1.41,1.6-2.17,2.19s-1.59,1.03-2.49,1.32c-.9,.29-1.92,.43-3.07,.43-1.39,0-2.64-.29-3.74-.86s-1.96-1.37-2.56-2.38c-.72-1.22-1.07-2.98-1.07-5.26v-11.39c0-1.15,.26-2.01,.78-2.58,.52-.57,1.21-.85,2.06-.85s1.57,.29,2.11,.86c.53,.58,.8,1.43,.8,2.57v9.2c0,1.33,.11,2.45,.34,3.36,.22,.91,.63,1.61,1.21,2.13,.58,.51,1.37,.77,2.37,.77s1.88-.29,2.74-.86c.86-.58,1.48-1.33,1.87-2.25,.32-.81,.48-2.6,.48-5.35v-6.99c0-1.14,.27-1.99,.8-2.57,.53-.58,1.23-.86,2.08-.86s1.54,.28,2.06,.85c.52,.57,.78,1.43,.78,2.58v16.66c0,1.09-.25,1.92-.75,2.46s-1.14,.82-1.93,.82-1.44-.28-1.95-.85c-.51-.57-.77-1.37-.77-2.39Z"/>
      <path class="cls-1" d="M425.5,42.64h-11.25c.01,1.31,.28,2.46,.79,3.45s1.19,1.75,2.04,2.25c.85,.5,1.79,.76,2.81,.76,.69,0,1.32-.08,1.88-.24s1.12-.41,1.65-.76c.53-.34,1.02-.71,1.47-1.11,.45-.39,1.03-.93,1.75-1.6,.29-.25,.72-.38,1.26-.38,.59,0,1.07,.16,1.43,.48,.37,.32,.55,.78,.55,1.37,0,.52-.2,1.13-.61,1.82-.41,.7-1.02,1.36-1.84,2s-1.85,1.17-3.1,1.59c-1.24,.42-2.67,.63-4.29,.63-3.69,0-6.56-1.05-8.61-3.16-2.05-2.11-3.07-4.96-3.07-8.57,0-1.7,.25-3.28,.76-4.73,.51-1.45,1.24-2.7,2.21-3.74,.97-1.04,2.16-1.83,3.58-2.39s2.99-.83,4.72-.83c2.25,0,4.17,.47,5.78,1.42,1.61,.95,2.81,2.17,3.61,3.67,.8,1.5,1.2,3.03,1.2,4.59,0,1.45-.41,2.38-1.24,2.81-.83,.43-1.99,.64-3.5,.64Zm-11.25-3.26h10.42c-.14-1.97-.67-3.44-1.59-4.41-.92-.98-2.13-1.46-3.63-1.46s-2.61,.5-3.53,1.49c-.92,.99-1.48,2.45-1.67,4.39Z"/>
    </g>
    <g>
      <path class="cls-1" d="M120.58,97.66h-2.6v-10.12h-11.48v10.12h-2.6v-22.19h2.6v9.73h11.48v-9.73h2.6v22.19Z"/>
      <path class="cls-1" d="M141.33,97.66h-2.54v-2.48h-.06c-1.1,1.9-2.73,2.85-4.87,2.85-1.58,0-2.81-.42-3.71-1.25-.89-.84-1.34-1.94-1.34-3.33,0-2.96,1.74-4.68,5.23-5.17l4.75-.67c0-2.69-1.09-4.04-3.26-4.04-1.91,0-3.63,.65-5.17,1.95v-2.6c1.56-.99,3.35-1.49,5.38-1.49,3.72,0,5.59,1.97,5.59,5.91v10.31Zm-2.54-8.02l-3.82,.53c-1.18,.17-2.06,.46-2.66,.87s-.9,1.16-.9,2.22c0,.77,.28,1.41,.83,1.9s1.29,.74,2.21,.74c1.26,0,2.3-.44,3.12-1.32s1.23-2,1.23-3.35v-1.58Z"/>
      <path class="cls-1" d="M160.85,96.93c-1.22,.73-2.66,1.1-4.33,1.1-2.26,0-4.08-.73-5.47-2.21-1.39-1.47-2.08-3.38-2.08-5.72,0-2.61,.75-4.71,2.24-6.29,1.5-1.58,3.49-2.38,5.99-2.38,1.39,0,2.62,.26,3.68,.77v2.6c-1.18-.83-2.43-1.24-3.78-1.24-1.62,0-2.95,.58-3.98,1.74-1.04,1.16-1.56,2.68-1.56,4.57s.49,3.32,1.46,4.39c.97,1.07,2.28,1.61,3.92,1.61,1.38,0,2.68-.46,3.9-1.38v2.41Z"/>
      <path class="cls-1" d="M181.77,97.66h-3.56l-7-7.61h-.06v7.61h-2.54v-23.46h2.54v14.87h.06l6.65-7.26h3.33l-7.35,7.64,7.92,8.2Z"/>
      <path class="cls-1" d="M199.64,97.66h-2.54v-2.48h-.06c-1.1,1.9-2.73,2.85-4.87,2.85-1.58,0-2.81-.42-3.71-1.25-.89-.84-1.34-1.94-1.34-3.33,0-2.96,1.74-4.68,5.23-5.17l4.75-.67c0-2.69-1.09-4.04-3.26-4.04-1.91,0-3.63,.65-5.17,1.95v-2.6c1.56-.99,3.35-1.49,5.38-1.49,3.72,0,5.59,1.97,5.59,5.91v10.31Zm-2.54-8.02l-3.82,.53c-1.18,.17-2.06,.46-2.66,.87s-.9,1.16-.9,2.22c0,.77,.28,1.41,.83,1.9s1.29,.74,2.21,.74c1.26,0,2.3-.44,3.12-1.32s1.23-2,1.23-3.35v-1.58Z"/>
      <path class="cls-1" d="M215.7,97.51c-.6,.33-1.39,.5-2.37,.5-2.78,0-4.16-1.55-4.16-4.64v-9.38h-2.72v-2.17h2.72v-3.87l2.54-.82v4.69h3.99v2.17h-3.99v8.93c0,1.06,.18,1.82,.54,2.28,.36,.45,.96,.68,1.8,.68,.64,0,1.19-.18,1.66-.53v2.17Z"/>
      <path class="cls-1" d="M236.17,97.66h-2.54v-9.13c0-3.3-1.23-4.95-3.68-4.95-1.24,0-2.28,.48-3.13,1.43s-1.27,2.18-1.27,3.68v8.97h-2.54v-23.46h2.54v10.24h.06c1.22-2,2.95-3,5.2-3,3.57,0,5.35,2.15,5.35,6.45v9.76Z"/>
      <path class="cls-1" d="M251.51,98.03c-2.34,0-4.21-.74-5.61-2.22-1.4-1.48-2.1-3.44-2.1-5.89,0-2.66,.73-4.74,2.18-6.24,1.46-1.5,3.42-2.24,5.9-2.24s4.21,.73,5.53,2.18c1.33,1.46,1.99,3.47,1.99,6.05s-.71,4.55-2.14,6.07-3.34,2.28-5.75,2.28Zm.19-14.45c-1.63,0-2.92,.55-3.87,1.66s-1.42,2.64-1.42,4.59,.48,3.36,1.44,4.44c.96,1.08,2.24,1.62,3.85,1.62s2.9-.53,3.78-1.59c.88-1.06,1.32-2.57,1.32-4.53s-.44-3.51-1.32-4.58c-.88-1.07-2.14-1.61-3.78-1.61Z"/>
      <path class="cls-1" d="M280.53,97.66h-2.54v-9.04c0-3.36-1.23-5.04-3.68-5.04-1.27,0-2.32,.48-3.15,1.43-.83,.95-1.25,2.16-1.25,3.61v9.04h-2.54v-15.85h2.54v2.63h.06c1.2-2,2.93-3,5.2-3,1.73,0,3.06,.56,3.98,1.68s1.38,2.74,1.38,4.85v9.69Z"/>
    </g>
  </g>
  <text class="cls-2" transform="translate(-3 77.53)"><tspan x="0" y="0">{}</tspan></text>
</svg>